<svg width="97" height="114" viewBox="0 0 97 114" fill="none" xmlns="http://www.w3.org/2000/svg">
    <path
        d="M92.0587 78.485H4.96963C4.34923 78.4828 3.73453 78.6033 3.16092 78.8397C2.58732 79.0761 2.06616 79.4236 1.62747 79.8623C1.18879 80.301 0.841239 80.8222 0.60486 81.3958C0.36848 81.9694 0.24794 82.5841 0.250183 83.2045V108.805C0.250183 110.057 0.747409 111.257 1.63248 112.142C2.51754 113.027 3.71795 113.524 4.96963 113.524H92.0587C93.3103 113.524 94.5107 113.027 95.3958 112.142C96.2809 111.257 96.7781 110.057 96.7781 108.805V83.2045C96.7803 82.5841 96.6598 81.9694 96.4234 81.3958C96.187 80.8222 95.8395 80.301 95.4008 79.8623C94.9621 79.4236 94.441 79.0761 93.8674 78.8397C93.2938 78.6033 92.6791 78.4828 92.0587 78.485V78.485ZM74.5729 83.578H81.0749V88.6709H74.5729V83.578ZM75.5915 93.7638V98.7209H69.0896V93.7808L75.5915 93.7638ZM62.9781 83.578H69.48V88.6709H63.0629L62.9781 83.578ZM63.9966 93.7638V98.7209H57.5116V93.7808L63.9966 93.7638ZM51.3832 83.578H57.97V88.6709H51.3832V83.578ZM52.4017 93.7638V98.7209H45.9167V93.7808L52.4017 93.7638ZM39.8052 83.578H46.2902V88.6709H39.8052V83.578ZM40.8238 93.7638V98.7209H34.3219V93.7808L40.8238 93.7638ZM28.2103 83.578H34.7123V88.6709H28.2103V83.578ZM29.2289 93.7638V98.7209H22.727V93.7808L29.2289 93.7638ZM16.6155 83.578H23.1174V88.6709H16.6155V83.578ZM5.34311 93.7808H7.70283V98.7379H5.34311V93.7808ZM11.5225 108.431H5.34311V103.848H11.5225V108.431ZM11.5225 88.6879H5.34311V83.5949H11.5225V88.6879ZM12.7958 93.7808H17.634V98.7379H12.7958V93.7808ZM23.1174 108.431H16.6155V103.848H23.1174V108.431ZM34.7123 108.431H28.2103V103.848H34.7123V108.431ZM57.8851 108.431H39.8052V103.848H57.97L57.8851 108.431ZM69.48 108.431H63.0629V103.848H69.5649L69.48 108.431ZM81.0749 108.431H74.5729V103.848H81.0749V108.431ZM84.4702 98.7379H80.6845V93.7808H84.3853L84.4702 98.7379ZM91.7701 108.431H86.1678V103.848H91.6852L91.7701 108.431ZM91.7701 98.7379H89.5631V93.7808H91.7701V98.7379ZM91.7701 88.6879H86.1678V83.5949H91.6852L91.7701 88.6879ZM81.3635 0.75H11.4546V73.6128H81.3635V0.75ZM76.2706 68.5199H16.5475V5.84293H76.2706V68.5199Z"
        fill="#1A2559" />
</svg>
    